{"title":"The Bank Dick(1940)MPEG-4(720p)[DaScubaDude]","uid":13220402,"size":727104129,"categoryP":"video","categoryS":"movies","magnet":"?xt=urn:btih:322d46a1d4f3291a81719399f0d09ab44aab76f7&amp;dn=The+Bank+Dick%281940%29MPEG-4%28720p%29%5BDaScubaDude%5D&amp;tr=udp%3A%2F%2Ftracker.leechers-paradise.org%3A6969&amp;tr=udp%3A%2F%2Fzer0day.ch%3A1337&amp;tr=udp%3A%2F%2Fopen.demonii.com%3A1337&amp;tr=udp%3A%2F%2Ftracker.coppersurfer.tk%3A6969&amp;tr=udp%3A%2F%2Fexodus.desync.com%3A6969","seeders":2,"leechers":2,"uploader":"dascuba","files":1,"time":1452757882,"description":"The Bank Dick (1940)\r\nNot Rated  |  72 min  |  Comedy  |  29 November 1940 (USA)\r\n7.4 Your rating:   -/10   Ratings: 7.4/10 from 5,152 users   \r\nReviews: 49 user | 38 critic\r\nHenpecked Egbert Sousè has comic adventures as a substitute film director and unlikely bank guard.\r\n\r\nDirector: Edward F. Cline (as Edward Cline)\r\nWriter: W.C. Fields (original screen play) (as Mahatma Kane Jeeves)\r\nStars: W.C. Fields, Cora Witherspoon, Una Merkel\r\n\r\nGeneral\r\nComplete name                            :The Bank DickTHE_BANK_DICK_Title1.mp4\r\nFormat                                   : MPEG-4\r\nFormat profile                           : Base Media\r\nCodec ID                                 : isom\r\nFile size                                : 693 MiB\r\nDuration                                 : 1h 12mn\r\nOverall bit rate                         : 1 346 Kbps\r\nMovie name                               : THE_BANK_DICK\r\nGenre                                    : Comedy\r\nWriting application                      : Lavf54.6.100\r\n\r\nVideo\r\nID                                       : 1\r\nFormat                                   : AVC\r\nFormat/Info                              : Advanced Video Codec\r\nFormat profile                           :   \r\nFormat settings, CABAC                   : No\r\nFormat settings, ReFrames                : 6 frames\r\nCodec ID                                 : avc1\r\nCodec ID/Info                            : Advanced Video Coding\r\nDuration                                 : 1h 12mn\r\nBit rate                                 : 1 203 Kbps\r\nWidth                                    : 720 pixels\r\nHeight                                   : 540 pixels\r\nDisplay aspect ratio                     : 4:3\r\nFrame rate mode                          : Constant\r\nFrame rate                               : 29.970 fps\r\nColor space                              : YUV\r\nChroma subsampling                       : 4:2:0\r\nBit depth                                : 8 bits\r\nScan type                                : Progressive\r\nBits/(Pixel*Frame)                       : 0.103\r\nStream size                              : 620 MiB (89%)\r\n\r\nAudio\r\nID                                       : 2\r\nFormat                                   : AAC\r\nFormat/Info                              : Advanced Audio Codec\r\nFormat profile                           : LC\r\nCodec ID                                 : 40\r\nDuration                                 : 1h 12mn\r\nBit rate mode                            : Constant\r\nBit rate                                 : 136 Kbps\r\nChannel(s)                               : 2 channels\r\nChannel positions                        : Front: L R\r\nSampling rate                            : 44.1 KHz\r\nCompression mode                         : Lossy\r\nStream size                              : 70.2 MiB (10%)","torrent":{"xt":"urn:btih:322d46a1d4f3291a81719399f0d09ab44aab76f7","amp;dn":"The+Bank+Dick%281940%29MPEG-4%28720p%29%5BDaScubaDude%5D","amp;tr":["udp%3A%2F%2Ftracker.leechers-paradise.org%3A6969","udp%3A%2F%2Fzer0day.ch%3A1337","udp%3A%2F%2Fopen.demonii.com%3A1337","udp%3A%2F%2Ftracker.coppersurfer.tk%3A6969","udp%3A%2F%2Fexodus.desync.com%3A6969"],"infoHash":"322d46a1d4f3291a81719399f0d09ab44aab76f7","infoHashBuffer":{"type":"Buffer","data":[50,45,70,161,212,243,41,26,129,113,147,153,240,208,154,180,74,171,118,247]},"announce":[],"urlList":[]}}